<?xml version="1.0" encoding="UTF-8" standalone="no"?>
<svg width="31px" height="30px" viewBox="0 0 31 30" version="1.1" xmlns="http://www.w3.org/2000/svg" xmlns:xlink="http://www.w3.org/1999/xlink" xmlns:sketch="http://www.bohemiancoding.com/sketch/ns">
    <!-- Generator: Sketch 3.4 (15575) - http://www.bohemiancoding.com/sketch -->
    <title>Shape</title>
    <desc>Created with Sketch.</desc>
    <defs></defs>
    <g id="Page-1" stroke="none" stroke-width="1" fill="none" fill-rule="evenodd" sketch:type="MSPage">
        <path d="M4.81152965,29.6223191 C5.29312821,30.1039176 6.08255264,30.1064001 6.56415119,29.6248015 L15.0839771,21.1074581 C15.5655757,20.6258595 16.3599651,20.6258595 16.8415636,21.1074581 L25.3613895,29.6248015 C25.8380232,30.1064001 26.6373775,30.1039176 27.1164935,29.6223191 L30.6043594,26.1046637 C31.0785105,25.6205826 31.0735456,24.8286757 30.5993944,24.3445947 L22.1664548,15.9042077 C21.6898212,15.4250916 21.6898212,14.6282198 22.1614899,14.1466212 L30.6043594,5.63176023 C31.0735456,5.14767922 31.0735456,4.35328985 30.6043594,3.8716913 L27.1115286,0.351553423 C26.6274476,-0.132527596 25.8380232,-0.132527596 25.3564246,0.349070957 L16.8415636,8.86641443 C16.3574826,9.34801298 15.5606108,9.34801298 15.0839771,8.86641443 L6.56415119,0.349070957 C6.08007017,-0.135010063 5.29312821,-0.132527596 4.81152965,0.351553423 L1.31869891,3.86920883 C0.837100362,4.35328985 0.837100362,5.14767922 1.31869891,5.63176023 L9.76653332,14.1441388 C10.2456494,14.6282198 10.2456494,15.4201267 9.76405085,15.9017252 L1.32366385,24.3396298 C0.842065295,24.8237108 0.839582829,25.6205826 1.32118138,26.0996987 L4.81152965,29.6223191 L4.81152965,29.6223191 Z" id="Shape" fill="#E8E8E8" sketch:type="MSShapeGroup"></path>
    </g>
</svg>