<svg xmlns="http://www.w3.org/2000/svg" width="31" height="30" viewBox="0 0 31 30" version="1.1"><title>Shape</title><desc>Created with Sketch.</desc><g stroke="none" stroke-width="1" fill="none" fill-rule="evenodd"><path d="M4.81 29.62C5.29 30.1 6.08 30.11 6.56 29.62L15.08 21.11C15.57 20.63 16.36 20.63 16.84 21.11L25.36 29.62C25.84 30.11 26.64 30.1 27.12 29.62L30.6 26.1C31.08 25.62 31.07 24.83 30.6 24.34L22.17 15.9C21.69 15.43 21.69 14.63 22.16 14.15L30.6 5.63C31.07 5.15 31.07 4.35 30.6 3.87L27.11 0.35C26.63-0.13 25.84-0.13 25.36 0.35L16.84 8.87C16.36 9.35 15.56 9.35 15.08 8.87L6.56 0.35C6.08-0.14 5.29-0.13 4.81 0.35L1.32 3.87C0.84 4.35 0.84 5.15 1.32 5.63L9.77 14.14C10.25 14.63 10.25 15.42 9.76 15.9L1.32 24.34C0.84 24.82 0.84 25.62 1.32 26.1L4.81 29.62 4.81 29.62Z" fill="#E8E8E8"/></g></svg>