<?xml version="1.0" encoding="UTF-8" standalone="no"?>
<svg width="32px" height="30px" viewBox="0 0 32 30" version="1.1" xmlns="http://www.w3.org/2000/svg" xmlns:xlink="http://www.w3.org/1999/xlink" xmlns:sketch="http://www.bohemiancoding.com/sketch/ns">
    <!-- Generator: Sketch 3.4 (15575) - http://www.bohemiancoding.com/sketch -->
    <title>Shape</title>
    <desc>Created with Sketch.</desc>
    <defs></defs>
    <g id="Page-1" stroke="none" stroke-width="1" fill="none" fill-rule="evenodd" sketch:type="MSPage">
        <path d="M3.5,0 L2.5,0 C1.12,0 0,1.12 0,2.5 L0,3.5 C0,4.88 1.12,6 2.5,6 L3.5,6 C4.88,6 6,4.88 6,3.5 L6,2.5 C6,1.12 4.88,0 3.5,0 L3.5,0 Z M29.504,0 L12.5,0 C11.12,0 10,1.12 10,2.5 L10,3.5 C10,4.88 11.12,6 12.5,6 L29.504,6 C30.882,6 32.004,4.88 32.004,3.5 L32.004,2.5 C32.004,1.12 30.882,0 29.504,0 L29.504,0 Z M3.5,12 L2.5,12 C1.12,12 0,13.12 0,14.5 L0,15.5 C0,16.878 1.12,18 2.5,18 L3.5,18 C4.88,18 6,16.878 6,15.5 L6,14.5 C6,13.12 4.88,12 3.5,12 L3.5,12 Z M29.504,12 L12.5,12 C11.12,12 10,13.12 10,14.5 L10,15.5 C10,16.878 11.12,18 12.5,18 L29.504,18 C30.882,18 32.004,16.878 32.004,15.5 L32.004,14.5 C32.004,13.12 30.882,12 29.504,12 L29.504,12 Z M3.5,24 L2.5,24 C1.12,24 0,25.122 0,26.5 L0,27.5 C0,28.878 1.12,30 2.5,30 L3.5,30 C4.88,30 6,28.878 6,27.5 L6,26.5 C6,25.122 4.88,24 3.5,24 L3.5,24 Z M29.504,24 L12.5,24 C11.12,24 10,25.122 10,26.5 L10,27.5 C10,28.878 11.12,30 12.5,30 L29.504,30 C30.882,30 32.004,28.878 32.004,27.5 L32.004,26.5 C32.004,25.122 30.882,24 29.504,24 L29.504,24 Z" id="Shape" fill="#E8E8E8" sketch:type="MSShapeGroup"></path>
    </g>
</svg>