<svg xmlns="http://www.w3.org/2000/svg" width="32" height="30" viewBox="0 0 32 30" version="1.1"><title>Shape</title><desc>Created with Sketch.</desc><g stroke="none" stroke-width="1" fill="none" fill-rule="evenodd"><path d="M3.5 0L2.5 0C1.12 0 0 1.12 0 2.5L0 3.5C0 4.88 1.12 6 2.5 6L3.5 6C4.88 6 6 4.88 6 3.5L6 2.5C6 1.12 4.88 0 3.5 0L3.5 0ZM29.5 0L12.5 0C11.12 0 10 1.12 10 2.5L10 3.5C10 4.88 11.12 6 12.5 6L29.5 6C30.88 6 32 4.88 32 3.5L32 2.5C32 1.12 30.88 0 29.5 0L29.5 0ZM3.5 12L2.5 12C1.12 12 0 13.12 0 14.5L0 15.5C0 16.88 1.12 18 2.5 18L3.5 18C4.88 18 6 16.88 6 15.5L6 14.5C6 13.12 4.88 12 3.5 12L3.5 12ZM29.5 12L12.5 12C11.12 12 10 13.12 10 14.5L10 15.5C10 16.88 11.12 18 12.5 18L29.5 18C30.88 18 32 16.88 32 15.5L32 14.5C32 13.12 30.88 12 29.5 12L29.5 12ZM3.5 24L2.5 24C1.12 24 0 25.12 0 26.5L0 27.5C0 28.88 1.12 30 2.5 30L3.5 30C4.88 30 6 28.88 6 27.5L6 26.5C6 25.12 4.88 24 3.5 24L3.5 24ZM29.5 24L12.5 24C11.12 24 10 25.12 10 26.5L10 27.5C10 28.88 11.12 30 12.5 30L29.5 30C30.88 30 32 28.88 32 27.5L32 26.5C32 25.12 30.88 24 29.5 24L29.5 24Z" fill="#E8E8E8"/></g></svg>