<?xml version="1.0" encoding="UTF-8" standalone="no"?>
<svg width="50px" height="50px" viewBox="0 0 50 50" version="1.1" xmlns="http://www.w3.org/2000/svg" xmlns:xlink="http://www.w3.org/1999/xlink" xmlns:sketch="http://www.bohemiancoding.com/sketch/ns">
    <!-- Generator: Sketch 3.4 (15575) - http://www.bohemiancoding.com/sketch -->
    <title>Shape</title>
    <desc>Created with Sketch.</desc>
    <defs></defs>
    <g id="Page-1" stroke="none" stroke-width="1" fill="none" fill-rule="evenodd" sketch:type="MSPage">
        <path d="M41.6666667,12.5 L50,20.8333333 L41.6666667,29.1666667 L41.6666667,22.9166667 L21.875,22.9166667 C21.3020833,22.9166667 20.8333333,22.4479167 20.8333333,21.875 L20.8333333,19.7916667 C20.8333333,19.21875 21.3020833,18.75 21.875,18.75 L41.6666667,18.75 L41.6666667,12.5 L41.6666667,12.5 Z M37.5,14.5833333 L37.5,1.04166667 C37.5,0.46875 37.03125,0 36.4583333,0 L1.04166667,0 C0.46875,0 0,0.46875 0,1.04166667 L0,40.3645833 C0,41.4713542 0,41.6666667 1.19791667,42.265625 L16.6666667,50 L16.6666667,41.6666667 L36.4583333,41.6666667 C37.03125,41.6666667 37.5,41.1979167 37.5,40.625 L37.5,27.0833333 L33.3333333,27.0833333 L33.3333333,37.5 L16.6666667,37.5 L16.6666667,8.33333333 L10.4166667,4.16666667 L33.3333333,4.16666667 L33.3333333,14.5833333 L37.5,14.5833333 L37.5,14.5833333 Z" id="Shape" fill="#232323" sketch:type="MSShapeGroup"></path>
    </g>
</svg>