<svg xmlns="http://www.w3.org/2000/svg" width="50" height="50" viewBox="0 0 50 50" version="1.1"><title>Shape</title><desc>Created with Sketch.</desc><g stroke="none" stroke-width="1" fill="none" fill-rule="evenodd"><path d="M41.7 12.5L50 20.8 41.7 29.2 41.7 22.9 21.9 22.9C21.3 22.9 20.8 22.4 20.8 21.9L20.8 19.8C20.8 19.2 21.3 18.8 21.9 18.8L41.7 18.8 41.7 12.5 41.7 12.5ZM37.5 14.6L37.5 1C37.5 0.5 37 0 36.5 0L1 0C0.5 0 0 0.5 0 1L0 40.4C0 41.5 0 41.7 1.2 42.3L16.7 50 16.7 41.7 36.5 41.7C37 41.7 37.5 41.2 37.5 40.6L37.5 27.1 33.3 27.1 33.3 37.5 16.7 37.5 16.7 8.3 10.4 4.2 33.3 4.2 33.3 14.6 37.5 14.6 37.5 14.6Z" fill="#232323"/></g></svg>