<?xml version="1.0" encoding="UTF-8" standalone="no"?>
<svg width="15px" height="15px" viewBox="0 0 15 15" version="1.1" xmlns="http://www.w3.org/2000/svg" xmlns:xlink="http://www.w3.org/1999/xlink" xmlns:sketch="http://www.bohemiancoding.com/sketch/ns">
    <!-- Generator: Sketch 3.4 (15575) - http://www.bohemiancoding.com/sketch -->
    <title>Shape</title>
    <desc>Created with Sketch.</desc>
    <defs></defs>
    <g id="Page-1" stroke="none" stroke-width="1" fill="none" fill-rule="evenodd" sketch:type="MSPage">
        <path d="M14.648,12.788 L10.418,8.56 C10.943,7.705 11.252,6.702 11.252,5.622 C11.252,2.517 8.732,-0.002 5.625,-0.002 C2.519,2.20309881e-16 -8.8817842e-16,2.519 -8.8817842e-16,5.625 C-8.8817842e-16,8.73 2.519,11.25 5.625,11.25 C6.701,11.25 7.705,10.941 8.561,10.418 L12.79,14.647 C12.984,14.842 13.305,14.842 13.497,14.647 L14.648,13.501 C14.842,13.301 14.842,12.982 14.648,12.788 L14.648,12.788 Z M1.298,5.625 C1.298,3.235 3.236,1.298 5.625,1.298 C8.016,1.298 9.953,3.235 9.953,5.625 C9.953,8.016 8.017,9.952 5.625,9.952 C3.235,9.952 1.298,8.016 1.298,5.625 L1.298,5.625 Z" id="Shape" fill="#232323" sketch:type="MSShapeGroup"></path>
    </g>
</svg>