<svg xmlns="http://www.w3.org/2000/svg" width="15" height="15" viewBox="0 0 15 15" version="1.1"><title>Shape</title><desc>Created with Sketch.</desc><g stroke="none" stroke-width="1" fill="none" fill-rule="evenodd"><path d="M14.65 12.79L10.42 8.56C10.94 7.71 11.25 6.7 11.25 5.62 11.25 2.52 8.73 0 5.63 0 2.52 0 0 2.52 0 5.63 0 8.73 2.52 11.25 5.63 11.25 6.7 11.25 7.71 10.94 8.56 10.42L12.79 14.65C12.98 14.84 13.31 14.84 13.5 14.65L14.65 13.5C14.84 13.3 14.84 12.98 14.65 12.79L14.65 12.79ZM1.3 5.63C1.3 3.24 3.24 1.3 5.63 1.3 8.02 1.3 9.95 3.24 9.95 5.63 9.95 8.02 8.02 9.95 5.63 9.95 3.24 9.95 1.3 8.02 1.3 5.63L1.3 5.63Z" fill="#232323"/></g></svg>