<svg xmlns="http://www.w3.org/2000/svg" width="24" height="24" viewBox="0 0 60 76" version="1.1"><g stroke="none" stroke-width="1" fill="none" fill-rule="evenodd"><g fill="#000000"><path d="M15 15.2C15 20.63 17.86 25.65 22.5 28.36 27.14 31.08 32.86 31.08 37.5 28.36 42.14 25.65 45 20.63 45 15.2 45 9.77 42.14 4.75 37.5 2.04 32.86-0.68 27.14-0.68 22.5 2.04 17.86 4.75 15 9.77 15 15.2L15 15.2ZM50.01 35.47L49.99 35.47 47.24 35.47 31.68 67.47 37.5 38 30 30.4 22.5 38 28.32 67.47 12.76 35.47 10.01 35.47 9.99 35.47C0 35.47 0 42.27 0 50.67L0 76 60 76 60 50.67C60 42.27 60 35.47 50.01 35.47L50.01 35.47Z"/></g></g></svg>