<?xml version="1.0" encoding="UTF-8" standalone="no"?>
<svg width="60px" height="76px" viewBox="0 0 60 76" version="1.1" xmlns="http://www.w3.org/2000/svg" xmlns:xlink="http://www.w3.org/1999/xlink" xmlns:sketch="http://www.bohemiancoding.com/sketch/ns">
    <!-- Generator: Sketch 3.4 (15575) - http://www.bohemiancoding.com/sketch -->
    <title>user4-512px</title>
    <desc>Created with Sketch.</desc>
    <defs></defs>
    <g id="Page-1" stroke="none" stroke-width="1" fill="none" fill-rule="evenodd" sketch:type="MSPage">
        <g id="user4-512px" sketch:type="MSLayerGroup" fill="#000000">
            <path d="M15,15.2 C14.9999999,20.630437 17.8589838,25.6483678 22.4999999,28.3635863 C27.1410161,31.0788049 32.8589839,31.0788049 37.5000001,28.3635863 C42.1410162,25.6483678 45.0000001,20.630437 45,15.2 C45.0000001,9.76956294 42.1410163,4.75163211 37.5000001,2.03641354 C32.8589839,-0.678805035 27.1410161,-0.678805035 22.4999999,2.03641354 C17.8589837,4.75163211 14.9999999,9.76956294 15,15.2 L15,15.2 Z M50.0060937,35.4666667 L49.9939063,35.4666667 L47.2385937,35.4666667 L31.6835937,67.4693167 L37.5,38 L30,30.4 L22.5,38 L28.3164062,67.4693167 L12.7615625,35.4666667 L10.0060938,35.4666667 L9.9940625,35.4666667 C0,35.4666667 0,42.2738917 0,50.6666667 L0,76 L60,76 L60,50.6666667 C60,42.2738917 60,35.4666667 50.0060937,35.4666667 L50.0060937,35.4666667 Z" id="Shape" sketch:type="MSShapeGroup"></path>
        </g>
    </g>
</svg>